<?xml version="1.0" encoding="utf-8"?>
<!-- Generator: Adobe Illustrator 16.0.0, SVG Export Plug-In . SVG Version: 6.00 Build 0)  -->
<!DOCTYPE svg PUBLIC "-//W3C//DTD SVG 1.1//EN" "http://www.w3.org/Graphics/SVG/1.1/DTD/svg11.dtd">
<svg version="1.1" id="Layer_1" xmlns="http://www.w3.org/2000/svg" xmlns:xlink="http://www.w3.org/1999/xlink" x="0px" y="0px"
	 width="1000px" height="1000px" viewBox="0 0 1000 1000" enable-background="new 0 0 1000 1000" xml:space="preserve">
<g>
	<path fill="#FFFFFF" d="M501.085,271.385c28.254,0,51.157-22.908,51.157-51.162s-22.903-51.158-51.157-51.158
		s-51.158,22.904-51.158,51.158S472.831,271.385,501.085,271.385z M501.085,194.642c14.127,0,25.581,11.454,25.581,25.581
		S515.212,245.8,501.085,245.8s-25.581-11.45-25.581-25.577S486.958,194.642,501.085,194.642z"/>
	<path fill="#FFFFFF" d="M408.107,365.452c-2.432,2.89-3.463,6.705-2.816,10.422l23.215,131.22
		c6.243-8.093,13.783-15.093,22.314-20.717l-17.647-99.888h135.765l-17.778,99.954c8.535,5.62,16.075,12.624,22.318,20.718
		l23.215-131.225c1.236-6.951-3.398-13.59-10.354-14.827c-0.807-0.147-1.621-0.209-2.439-0.201H417.633
		C413.953,360.981,410.481,362.635,408.107,365.452z"/>
	<path fill="#FFFFFF" d="M897.57,728.611L897.57,728.611c-0.008-23.059-8.944-45.227-24.946-61.838
		c1.057-4.638,1.585-9.374,1.601-14.131c0.054-36.52-29.506-66.165-66.025-66.219c-10.971-0.016-21.773,2.698-31.431,7.901
		c-3.573-6.182-7.868-11.913-12.792-17.079c1.052-4.634,1.584-9.374,1.6-14.131c-1.134-36.539-31.676-65.235-68.211-64.098
		c-34.939,1.089-63.014,29.154-64.098,64.098c0.008,4.777,0.544,9.538,1.601,14.196c-3.771,3.946-7.173,8.229-10.169,12.789
		c-15.498-5.313-32.43-4.626-47.449,1.915c-3.299-5.28-7.135-10.209-11.449-14.704c1.048-4.638,1.584-9.378,1.601-14.135
		c-1.134-36.536-31.677-65.231-68.212-64.094c-34.943,1.085-63.013,29.155-64.098,64.094c0.012,4.757,0.549,9.497,1.597,14.135
		c-4.314,4.495-8.15,9.424-11.446,14.704c-16.759-7.299-35.803-7.299-52.57,0c-3.292-5.28-7.131-10.209-11.442-14.704
		c1.052-4.638,1.584-9.378,1.597-14.135c-1.134-36.536-31.672-65.231-68.212-64.094c-34.935,1.085-63.009,29.155-64.098,64.094
		c0.012,4.757,0.548,9.497,1.597,14.135c-4.311,4.495-8.146,9.424-11.442,14.704c-33.437-14.688-72.444,0.504-87.141,33.937
		c-3.696,8.412-5.6,17.5-5.587,26.69c0.016,4.757,0.548,9.493,1.601,14.131c-15.998,16.611-24.942,38.779-24.942,61.838h-1.085
		c-7.061,0-12.789,5.731-12.789,12.789v76.742c0,7.062,5.728,12.793,12.789,12.793h78.335c7.062,0,12.788-5.731,12.788-12.793
		c0-7.065-5.727-12.793-12.788-12.793h-65.547v-51.157h767.387v51.157h-637.89c-7.065,0-12.789,5.728-12.789,12.793
		c0,7.062,5.723,12.793,12.789,12.793h650.679c7.061,0,12.788-5.731,12.788-12.793V741.4
		C909.295,734.744,904.202,729.176,897.57,728.611z M808.035,611.973c20.939,0.004,38.439,15.928,40.421,36.765
		c-25.356-12.978-55.411-12.978-80.767,0c2.001-20.788,19.456-36.667,40.346-36.704V611.973z M699.326,522.441
		c20.918,0.004,38.406,15.891,40.42,36.707c-25.372-12.948-55.402-12.948-80.771,0c2.039-20.767,19.482-36.609,40.352-36.642
		V522.441z M603.4,611.973c20.938,0.004,38.439,15.928,40.42,36.765c-25.359-12.978-55.41-12.978-80.767,0
		c2.002-20.788,19.457-36.667,40.347-36.704V611.973z M501.085,522.441c20.935,0.008,38.438,15.932,40.416,36.772
		c-25.364-12.948-55.403-12.948-80.767,0c2.006-20.791,19.461-36.675,40.351-36.707V522.441z M398.765,611.973
		c20.939,0.004,38.439,15.928,40.417,36.765c-25.352-12.978-55.407-12.978-80.767,0c2.01-20.788,19.465-36.667,40.351-36.704
		V611.973z M296.45,522.441c20.935,0.008,38.435,15.932,40.416,36.772c-25.368-12.948-55.398-12.948-80.767,0
		c2.001-20.791,19.465-36.675,40.351-36.707V522.441z M194.13,611.973c20.939,0.004,38.439,15.928,40.417,36.765
		c-25.356-12.978-55.411-12.978-80.763,0c2.001-20.788,19.457-36.667,40.346-36.704V611.973z M130.184,728.611
		c0-35.315,28.63-63.941,63.946-63.941c35.316,0,63.946,28.626,63.946,63.941H130.184z M309.238,728.611h-25.577
		c0-23.059-8.94-45.227-24.938-61.838c1.048-4.638,1.58-9.374,1.596-14.131c0-17.234-6.746-33.789-18.802-46.106
		c18.057-30.354,57.29-40.33,87.648-22.277c9.169,5.448,16.824,13.112,22.277,22.277c-12.052,12.317-18.798,28.872-18.798,46.106
		c0.016,4.757,0.548,9.493,1.596,14.131C318.22,683.377,309.254,705.54,309.238,728.611z M334.819,728.611
		c0-35.315,28.635-63.941,63.946-63.941c35.32,0,63.951,28.626,63.951,63.941H334.819z M513.877,728.611h-25.585
		c0-23.059-8.936-45.227-24.938-61.838c1.052-4.638,1.588-9.374,1.597-14.131c0-17.234-6.747-33.789-18.798-46.106
		c18.053-30.354,57.294-40.33,87.652-22.277c9.162,5.448,16.825,13.112,22.277,22.277c-12.051,12.317-18.797,28.872-18.797,46.106
		c0.008,4.757,0.544,9.493,1.592,14.131C522.854,683.377,513.894,705.54,513.877,728.611z M539.454,728.611
		c0-35.315,28.631-63.941,63.946-63.941c35.319,0,63.954,28.626,63.954,63.941H539.454z M718.513,728.611h-25.577
		c-0.004-23.059-8.944-45.227-24.942-61.838c1.048-4.638,1.58-9.374,1.597-14.131c-0.017-19.15-8.343-37.354-22.826-49.877
		c20.088-29.048,59.922-36.311,88.971-16.219c8.969,6.21,16.207,14.606,21.017,24.402c-9.612,11.769-14.852,26.498-14.835,41.693
		c0.016,4.757,0.548,9.493,1.6,14.131C727.49,683.377,718.529,705.54,718.513,728.611z M744.09,728.611
		c0-35.315,28.635-63.941,63.945-63.941c35.32,0,63.951,28.626,63.951,63.941H744.09z"/>
	<path fill="#FFFFFF" d="M430.745,310.008v25.581h25.577v-25.581h89.527v25.581h25.581v-25.581
		c0-14.127-11.454-25.581-25.581-25.581h-89.27c-14.127-0.139-25.695,11.196-25.834,25.323
		C430.745,309.832,430.745,309.922,430.745,310.008z"/>
</g>
</svg>
