<?xml version="1.0" encoding="utf-8"?>
<!-- Generator: Adobe Illustrator 16.0.0, SVG Export Plug-In . SVG Version: 6.00 Build 0)  -->
<!DOCTYPE svg PUBLIC "-//W3C//DTD SVG 1.1//EN" "http://www.w3.org/Graphics/SVG/1.1/DTD/svg11.dtd">
<svg version="1.1" id="Layer_1" xmlns="http://www.w3.org/2000/svg" xmlns:xlink="http://www.w3.org/1999/xlink" x="0px" y="0px"
	 width="2868px" height="632px" viewBox="0 0 2868 632" enable-background="new 0 0 2868 632" xml:space="preserve">
<g>
	<g>
		<path fill="#FFFFFF" d="M1300.834,20.46H72.384c-35.205,0-63.791,28.568-63.791,63.738v469.569
			c0,35.224,28.586,63.772,63.791,63.772h1228.45c35.205,0,63.717-28.55,63.717-63.772V84.198
			C1364.551,49.028,1336.039,20.46,1300.834,20.46z M297.576,456.63c-6.981,1.562-14.984,2.309-24.221,2.309
			c-11.785,0-21.822-1.818-30.112-5.384c-8.366-3.6-15.13-8.584-20.367-14.964c-5.239-6.384-9.02-14.15-11.492-23.243
			c-2.475-9.106-3.638-19.129-3.638-30.166v-77.192h-26.185V266.15l29.241-2.292l6.508-50.697h46.88v50.697h45.678v44.131H264.19
			v76.446c0,10.748,2.183,18.495,6.691,23.224c4.509,4.746,10.4,7.107,17.892,7.107c3.056,0,6.183-0.38,9.385-1.165
			c3.2-0.743,6.037-1.651,8.655-2.67l8.801,41.097C310.523,453.555,304.486,455.119,297.576,456.63z M499.204,454.318h-46.115
			l-4.22-19.582h-1.163c-8.146,7.182-16.839,12.979-25.896,17.473c-9.092,4.453-18.983,6.729-29.749,6.729
			c-8.729,0-16.548-1.475-23.458-4.438c-6.911-2.93-12.767-7.02-17.638-12.273c-4.874-5.235-8.62-11.329-11.311-18.237
			c-2.729-6.896-4.038-14.459-4.038-22.64c0-19.985,8.366-35.606,25.313-46.882c16.947-11.274,44.152-18.8,81.829-22.655
			c-0.509-8.438-3.127-15.168-7.674-20.131c-4.619-5.035-12.038-7.508-22.295-7.508c-8.217,0-16.363,1.527-24.583,4.615
			c-8.146,3.075-16.875,7.293-26.114,12.655l-19.966-37.241c12.293-7.435,25.132-13.436,38.588-18.054
			c13.418-4.583,27.713-6.91,42.84-6.91c24.551,0,43.281,6.982,56.299,20.948c12.802,13.95,19.35,35.625,19.35,65.083
			L499.204,454.318L499.204,454.318z M616.09,457.592c-4.728,0.891-10.292,1.347-16.655,1.347c-9.747,0-17.93-1.548-24.586-4.619
			c-6.655-3.056-11.966-7.347-15.928-12.857c-3.965-5.508-6.837-12.127-8.658-19.981c-1.816-7.804-2.69-16.564-2.69-26.296V185.12
			h56.481v212.354c0,5.912,1.054,10.002,3.235,12.292c2.183,2.292,4.4,3.456,6.764,3.456c1.31,0,2.329,0,3.203,0
			c0.943,0,2.106-0.233,3.708-0.744l6.91,41.841C624.783,455.592,620.891,456.662,616.09,457.592z M697.048,454.318
			c6.256-4.963,12.801-9.365,20.074-12.494c10.765-4.601,21.895-6.927,33.387-6.927c13.564,0,25.457,2.326,35.567,6.927
			c6.982,3.221,12.912,7.584,18.33,12.494H697.048z M830.809,305.879c-0.58,4.239-1.055,7.492-1.524,9.803H715.159
			c2.583,14.564,8.292,25.151,17.094,31.679c8.874,6.545,19.639,9.819,32.513,9.819c13.529,0,27.239-4.256,41.022-12.678
			l18.876,34.154c-9.783,6.672-20.548,11.928-32.479,15.744c-11.928,3.839-23.639,5.766-35.167,5.766
			c-13.565,0-26.187-2.254-38.006-6.691c-11.709-4.51-21.965-11.037-30.692-19.618c-8.731-8.566-15.493-19.005-20.367-31.298
			c-4.874-12.312-7.275-26.366-7.275-42.239c0-14.676,2.402-27.951,6.983-39.917h54.116c-3.237,5.439-5.673,12.111-6.983,20.33
			h68.771c0-7.964-1.778-14.511-4.326-20.33h48.333c2.51,9.82,3.965,20.238,3.965,31.459
			C831.537,296.988,831.248,301.66,830.809,305.879z M1027.998,454.318H971.52V343.357c0-13.839-1.782-23.312-5.563-28.421
			c-3.711-5.131-9.639-7.692-17.82-7.692c-7.201,0-13.31,1.584-18.476,4.801c-5.091,3.2-10.691,7.746-16.802,13.639v128.636h-56.516
			V263.857h46.042l3.854,24.202h1.526c8.221-7.691,17.202-14.418,26.875-20.181c9.783-5.767,21.131-8.639,34.223-8.639
			c20.768,0,35.75,6.781,45.098,20.33c9.383,13.601,14.037,32.419,14.037,56.48V454.318L1027.998,454.318z M1173.51,456.63
			c-6.873,1.562-14.875,2.309-24.186,2.309c-11.746,0-21.822-1.818-30.187-5.384c-8.291-3.6-15.057-8.584-20.293-14.964
			c-5.237-6.384-9.094-14.15-11.494-23.243c-2.473-9.106-3.709-19.129-3.709-30.166v-77.192h-26.11V266.15l29.203-2.292l6.51-50.697
			h46.844v50.697h45.75v44.131h-45.75v76.446c0,10.748,2.252,18.495,6.764,23.224c4.437,4.746,10.4,7.107,17.857,7.107
			c3.092,0,6.182-0.38,9.42-1.165c3.199-0.743,6.037-1.651,8.617-2.67l8.84,41.097
			C1186.457,453.555,1180.383,455.119,1173.51,456.63z"/>
		<path fill="#FFFFFF" d="M389.371,397.111c0,6.131,2.037,10.69,5.964,13.621c4,2.942,9.239,4.418,15.931,4.418
			c6.618,0,12.291-1.402,16.91-4.22c4.546-2.817,9.456-6.784,14.584-11.909v-33.405c-20.256,2.816-34.188,6.909-41.896,12.292
			C393.19,383.291,389.371,389.713,389.371,397.111z"/>
	</g>
	<g enable-background="new    ">
		<path fill="#FFFFFF" d="M1462.017,359.062c0-15.361,2.556-29.246,7.681-41.667c5.118-12.415,11.839-22.91,20.161-31.491
			c8.317-8.575,17.857-15.169,28.61-19.777s21.89-6.913,33.41-6.913c13.567,0,25.406,2.304,35.523,6.913
			c10.11,4.608,18.559,11.011,25.346,19.201c6.78,8.197,11.839,17.857,15.169,28.995c3.324,11.137,4.993,23.233,4.993,36.291
			c0,5.124-0.259,9.792-0.769,14.017c-0.517,4.225-1.026,7.488-1.536,9.793h-114.057c2.557,14.593,8.256,25.153,17.09,31.683
			c8.832,6.528,19.645,9.792,32.449,9.792c13.567,0,27.267-4.224,41.092-12.673l18.817,34.179
			c-9.733,6.661-20.546,11.905-32.45,15.745c-11.905,3.841-23.618,5.761-35.139,5.761c-13.573,0-26.246-2.244-38.02-6.721
			c-11.779-4.477-22.021-11.005-30.723-19.585c-8.706-8.575-15.492-19.01-20.354-31.299
			C1464.447,389.017,1462.017,374.939,1462.017,359.062z M1584.906,339.477c0-11.004-2.437-19.969-7.297-26.882
			c-4.866-6.912-13.057-10.369-24.578-10.369c-8.965,0-16.837,3.012-23.617,9.025c-6.787,6.019-11.203,15.427-13.25,28.226H1584.906
			z"/>
		<path fill="#FFFFFF" d="M1672.076,185.097h56.453v212.369c0,5.892,1.086,9.984,3.264,12.288c2.172,2.305,4.416,3.457,6.721,3.457
			c1.278,0,2.364,0,3.264,0c0.895,0,2.113-0.252,3.648-0.769l6.913,41.859c-3.072,1.278-6.979,2.364-11.713,3.265
			c-4.74,0.894-10.31,1.344-16.706,1.344c-9.732,0-17.923-1.536-24.577-4.608c-6.661-3.072-11.972-7.356-15.937-12.865
			c-3.973-5.502-6.854-12.156-8.642-19.97c-1.794-7.806-2.688-16.573-2.688-26.306V185.097z"/>
		<path fill="#FFFFFF" d="M1770.771,359.062c0-15.361,2.556-29.246,7.681-41.667c5.118-12.415,11.839-22.91,20.161-31.491
			c8.317-8.575,17.857-15.169,28.61-19.777s21.89-6.913,33.41-6.913c13.567,0,25.406,2.304,35.523,6.913
			c10.11,4.608,18.559,11.011,25.346,19.201c6.78,8.197,11.839,17.857,15.169,28.995c3.324,11.137,4.993,23.233,4.993,36.291
			c0,5.124-0.259,9.792-0.769,14.017c-0.517,4.225-1.026,7.488-1.536,9.793h-114.057c2.557,14.593,8.256,25.153,17.09,31.683
			c8.832,6.528,19.645,9.792,32.449,9.792c13.567,0,27.267-4.224,41.092-12.673l18.817,34.179
			c-9.733,6.661-20.546,11.905-32.45,15.745c-11.905,3.841-23.618,5.761-35.139,5.761c-13.573,0-26.246-2.244-38.02-6.721
			c-11.779-4.477-22.021-11.005-30.723-19.585c-8.706-8.575-15.492-19.01-20.354-31.299
			C1773.201,389.017,1770.771,374.939,1770.771,359.062z M1893.66,339.477c0-11.004-2.437-19.969-7.297-26.882
			c-4.866-6.912-13.057-10.369-24.578-10.369c-8.965,0-16.837,3.012-23.617,9.025c-6.787,6.019-11.203,15.427-13.25,28.226H1893.66z
			"/>
		<path fill="#FFFFFF" d="M1958.175,263.823h56.836l24.578,89.863c2.557,9.475,5.053,19.141,7.488,28.994
			c2.431,9.858,4.927,19.777,7.489,29.762h1.536c2.304-9.984,4.668-19.903,7.104-29.762c2.43-9.854,4.926-19.52,7.488-28.994
			l24.962-89.863h54.148l-62.213,190.479h-65.285L1958.175,263.823z"/>
		<path fill="#FFFFFF" d="M2164.785,401.306c0-19.97,8.448-35.583,25.346-46.852c16.897-11.263,44.163-18.817,81.798-22.658
			c-0.516-8.448-3.072-15.169-7.681-20.161s-12.036-7.488-22.273-7.488c-8.196,0-16.388,1.536-24.578,4.608
			c-8.196,3.072-16.897,7.297-26.113,12.673l-19.97-37.251c12.289-7.422,25.153-13.441,38.595-18.049s27.71-6.913,42.819-6.913
			c24.578,0,43.329,6.979,56.26,20.93c12.926,13.957,19.394,35.655,19.394,65.093v109.064h-46.083l-4.225-19.586h-1.152
			c-8.196,7.171-16.837,12.997-25.922,17.474c-9.091,4.477-19.009,6.721-29.762,6.721c-8.707,0-16.514-1.477-23.426-4.416
			c-6.913-2.94-12.806-7.039-17.666-12.289c-4.866-5.245-8.641-11.329-11.328-18.241
			C2166.129,417.051,2164.785,409.502,2164.785,401.306z M2218.549,397.081c0,6.145,1.98,10.693,5.952,13.634
			c3.967,2.946,9.277,4.416,15.938,4.416c6.654,0,12.289-1.404,16.897-4.225c4.608-2.814,9.469-6.78,14.593-11.904v-33.411
			c-20.228,2.82-34.179,6.913-41.859,12.289S2218.549,389.659,2218.549,397.081z"/>
		<path fill="#FFFFFF" d="M2384.448,307.986h-26.114v-41.859l29.187-2.304l6.528-50.692h46.852v50.692h45.699v44.163H2440.9v76.422
			c0,10.753,2.238,18.5,6.721,23.234c4.477,4.74,10.429,7.104,17.857,7.104c3.072,0,6.204-0.385,9.408-1.152
			c3.198-0.769,6.079-1.662,8.641-2.688l8.833,41.092c-5.124,1.536-11.137,3.071-18.049,4.607
			c-6.913,1.536-14.978,2.305-24.194,2.305c-11.779,0-21.83-1.794-30.146-5.376c-8.322-3.583-15.109-8.575-20.354-14.978
			c-5.25-6.396-9.091-14.144-11.521-23.233c-2.437-9.085-3.648-19.136-3.648-30.146V307.986z"/>
		<path fill="#FFFFFF" d="M2508.874,359.062c0-15.871,2.556-30.014,7.681-42.436c5.118-12.415,11.965-22.85,20.545-31.298
			c8.575-8.448,18.494-14.911,29.763-19.393c11.263-4.477,22.91-6.721,34.946-6.721c12.031,0,23.618,2.244,34.755,6.721
			c11.137,4.482,20.99,10.945,29.57,19.393c8.575,8.449,15.421,18.884,20.546,31.298c5.118,12.422,7.681,26.564,7.681,42.436
			c0,15.877-2.562,30.021-7.681,42.436c-5.125,12.421-11.971,22.85-20.546,31.298c-8.58,8.449-18.434,14.917-29.57,19.394
			s-22.724,6.721-34.755,6.721c-12.036,0-23.684-2.244-34.946-6.721c-11.269-4.477-21.188-10.944-29.763-19.394
			c-8.58-8.448-15.427-18.877-20.545-31.298C2511.43,389.083,2508.874,374.939,2508.874,359.062z M2566.862,359.062
			c0,16.646,2.88,29.828,8.641,39.555c5.761,9.733,14.527,14.594,26.306,14.594c11.521,0,20.222-4.86,26.114-14.594
			c5.887-9.727,8.833-22.909,8.833-39.555c0-16.64-2.946-29.822-8.833-39.555c-5.893-9.727-14.593-14.593-26.114-14.593
			c-11.778,0-20.545,4.866-26.306,14.593C2569.742,329.24,2566.862,342.423,2566.862,359.062z"/>
		<path fill="#FFFFFF" d="M2733.145,263.823h46.084l3.84,33.411h1.536c6.912-13.057,15.229-22.658,24.962-28.802
			c9.727-6.145,19.453-9.217,29.187-9.217c5.376,0,9.792,0.324,13.249,0.96c3.456,0.642,6.588,1.602,9.408,2.88l-9.217,48.771
			c-3.588-1.02-6.912-1.788-9.984-2.304c-3.072-0.51-6.66-0.768-10.753-0.768c-7.171,0-14.659,2.562-22.466,7.681
			c-7.812,5.125-14.275,14.209-19.394,27.266v110.601h-56.452V263.823z"/>
	</g>
</g>
</svg>
