<?xml version="1.0" encoding="UTF-8" standalone="no"?>
<svg
   xmlns:dc="http://purl.org/dc/elements/1.1/"
   xmlns:cc="http://creativecommons.org/ns#"
   xmlns:rdf="http://www.w3.org/1999/02/22-rdf-syntax-ns#"
   xmlns:svg="http://www.w3.org/2000/svg"
   xmlns="http://www.w3.org/2000/svg"
   viewBox="0 0 215.37334 70.306664"
   height="70.306664"
   width="215.37334"
   xml:space="preserve"
   id="svg2"
   version="1.1"><metadata
     id="metadata8"><rdf:RDF><cc:Work
         rdf:about=""><dc:format>image/svg+xml</dc:format><dc:type
           rdf:resource="http://purl.org/dc/dcmitype/StillImage" /></cc:Work></rdf:RDF></metadata><defs
     id="defs6" /><g
     transform="matrix(1.3333333,0,0,-1.3333333,0,70.306667)"
     id="g10"><g
       transform="scale(0.1)"
       id="g12"><path
         id="path14"
         style="fill:#ffffff;fill-opacity:1;fill-rule:nonzero;stroke:none"
         d="m 213.48,181.707 c 20.559,0 38.219,9.559 48.071,28.672 9.84,-19.113 27.5,-28.672 48.058,-28.672 41.7,0 57.621,27.512 57.621,57.328 v 90.344 h -36.48 v -85.133 c 0,-18.82 -10.141,-28.078 -25.48,-28.078 -15.641,0 -25.481,9.258 -25.481,28.078 v 85.133 h -36.488 v -85.133 c 0,-18.82 -9.84,-28.078 -25.481,-28.078 -15.34,0 -25.48,9.258 -25.48,28.078 v 85.133 h -36.481 v -90.344 c 0,-29.816 15.629,-57.328 57.621,-57.328 m 323.43,4.34 v 25.769 c -3.472,-0.578 -6.66,-0.871 -8.691,-0.871 -11.578,0 -13.031,5.512 -13.031,15.063 v 47.777 c 0,32.723 -15.629,58.492 -61.379,58.492 -20.559,0 -39.961,-4.922 -54.442,-11.582 l -0.289,-32.136 c 17.383,8.386 35.621,12.449 50.102,12.449 17.949,0 30.398,-8.11 30.398,-25.199 h -35.039 c -36.48,0 -59.359,-15.633 -59.359,-48.641 0,-29.25 22.008,-45.75 49.519,-45.75 18.821,0 35.61,5.789 46.91,24.027 2.891,-16.207 15.629,-22.867 31.852,-22.867 8.969,0 16.789,1.16 23.449,3.469 m -115.82,44.308 c 0,14.762 10.418,21.422 27.508,21.422 h 30.98 C 479,221.379 460.18,210.945 443.668,210.945 c -14.469,0 -22.578,7.821 -22.578,19.41 m 175.75,-48.648 c 12.16,0 20.269,2.031 29.828,5.5 v 29.25 c -6.949,-2.031 -13.027,-2.609 -19.109,-2.609 -11.59,0 -18.821,3.48 -18.821,19.109 v 67.18 h 33.871 v 29.242 h -33.871 v 39.957 H 552.25 v -39.957 h -23.16 v -29.242 h 23.16 v -75.289 c 0,-28.66 14.188,-43.141 44.59,-43.141 m 161.277,12.449 -0.289,33.301 c -16.789,-9.269 -32.14,-12.16 -45.75,-12.16 -25.187,0 -39.09,10.129 -43.43,29.531 H 772.02 c 0.578,4.059 0.871,8.688 0.871,13.61 0,50.378 -30.114,73.839 -68.051,73.839 -48.063,0 -73.832,-35.332 -73.832,-75.871 0,-46.32 29.82,-74.699 77.312,-74.699 16.5,0 32.719,2.609 49.797,12.449 m -23.449,76.442 h -66.309 c 3.758,21.429 16.219,30.988 34.75,30.988 15.051,0 29.532,-8.109 31.559,-30.988 m 56.461,58.781 V 184.605 h 36.48 v 68.333 c 0,37.347 23.75,41.699 46.039,42.281 v 36.769 c -22.578,0.578 -38.507,-12.16 -46.328,-26.64 l -0.293,24.031 z M 940.828,181.707 c 21.133,0 36.77,7.238 46.332,23.738 3.758,-17.367 17.08,-22.867 32.71,-22.867 8.4,0 16.51,1.16 24.62,4.34 v 24.898 c -3.77,-0.578 -6.66,-0.871 -8.69,-0.871 -11.87,0 -13.03,5.512 -13.03,15.641 v 160.699 h -36.481 v -77.308 c -9.559,15.351 -24.91,22.3 -45.461,22.3 -40.25,0 -65.73,-31.558 -65.73,-75.289 0,-43.722 25.48,-75.281 65.73,-75.281 m 9.551,32.719 c -24.609,0 -37.93,18.242 -37.93,42.562 0,24.617 13.321,42.86 37.93,42.86 19.98,0 35.91,-13.032 35.91,-42.86 0,-29.531 -15.93,-42.562 -35.91,-42.562 M 1060.41,329.379 V 184.605 h 36.48 v 68.333 c 0,37.347 23.75,41.699 46.04,42.281 v 36.769 c -22.58,0.578 -38.51,-12.16 -46.32,-26.64 l -0.29,24.031 z m 159.25,-147.672 c 49.52,0 75.29,35.328 75.29,75.281 0,39.957 -25.77,75.289 -75.29,75.289 -49.51,0 -75.28,-35.332 -75.28,-75.289 0,-39.953 25.77,-75.281 75.28,-75.281 m 0,33.879 c -25.77,0 -37.93,19.109 -37.93,41.402 0,22.297 12.16,41.41 37.93,41.41 25.77,0 37.94,-19.113 37.94,-41.41 0,-22.293 -12.17,-41.402 -37.94,-41.402 m 92.08,113.793 v -194 h 36.48 v 68.34 c 9.56,-15.063 24.91,-22.012 45.46,-22.012 40.25,0 65.73,31.559 65.73,75.281 0,43.731 -25.48,75.289 -65.73,75.289 -20.84,0 -36.19,-6.949 -45.75,-22.3 l -0.28,19.402 z m 72.39,-114.953 c -19.98,0 -35.91,13.031 -35.91,42.562 0,29.828 15.93,42.86 35.91,42.86 24.61,0 37.93,-18.243 37.93,-42.86 0,-24.32 -13.32,-42.562 -37.93,-42.562 m 55.01,137.832 c -13.32,0 -19.98,9.84 -19.98,19.687 0,10.133 6.66,19.981 19.98,19.981 13.32,0 19.98,-9.848 19.98,-19.981 0,-9.847 -6.66,-19.687 -19.98,-19.687 m -16.79,19.687 c 0,-8.109 5.79,-16.507 16.79,-16.507 11,0 16.79,8.398 16.79,16.507 0,8.391 -5.79,16.793 -16.79,16.793 -11,0 -16.79,-8.402 -16.79,-16.793 m 18.24,10.133 h -8.69 v -19.402 h 3.19 v 8.402 h 4.05 l 4.92,-8.402 h 3.48 l -4.93,8.691 c 2.9,0.289 4.35,2.309 4.35,5.211 0,3.18 -2.03,5.5 -6.37,5.5 m 0,-8.402 h -5.5 v 5.801 h 5.5 c 2.02,0 3.18,-0.872 3.18,-2.899 0,-2.031 -1.16,-2.902 -3.18,-2.902" /></g></g></svg>